HIERARCHY
ROOT Hips
{
	OFFSET 0.000000 0.000000 0.000000
	CHANNELS 6 Xposition Yposition Zposition Zrotation Yrotation Xrotation 
	JOINT LHipJoint
	{
		OFFSET 0.000000 0.000000 0.000000
		CHANNELS 3 Zrotation Yrotation Xrotation
		JOINT LeftUpLeg
		{
			OFFSET 1.363060 -1.794630 0.839290
			CHANNELS 3 Zrotation Yrotation Xrotation
			JOINT LeftLeg
			{
				OFFSET 2.448110 -6.726130 0.000000
				CHANNELS 3 Zrotation Yrotation Xrotation
				JOINT LeftFoot
				{
					OFFSET 2.562200 -7.039590 0.000000
					CHANNELS 3 Zrotation Yrotation Xrotation
					JOINT LeftToeBase
					{
						OFFSET 0.157640 -0.433110 2.322550
						CHANNELS 3 Zrotation Yrotation Xrotation
						End Site
						{
							OFFSET 0.000000 0.000000 0.000000
						}
					}
				}
			}
		}
	}
	JOINT RHipJoint
	{
		OFFSET 0.000000 0.000000 0.000000
		CHANNELS 3 Zrotation Yrotation Xrotation
		JOINT RightUpLeg
		{
			OFFSET -1.305520 -1.794630 0.839290
			CHANNELS 3 Zrotation Yrotation Xrotation
			JOINT RightLeg
			{
				OFFSET -2.542530 -6.985550 0.000000
				CHANNELS 3 Zrotation Yrotation Xrotation
				JOINT RightFoot
				{
					OFFSET -2.568260 -7.056230 0.000000
					CHANNELS 3 Zrotation Yrotation Xrotation
					JOINT RightToeBase
					{
						OFFSET -0.164730 -0.452590 2.363150
						CHANNELS 3 Zrotation Yrotation Xrotation
						End Site
						{
							OFFSET 0.000000 0.000000 0.000000
						}
					}
				}
			}
		}
	}
	JOINT LowerBack
	{
		OFFSET 0.000000 0.000000 0.000000
		CHANNELS 3 Zrotation Yrotation Xrotation
		JOINT Spine
		{
			OFFSET 0.028270 2.035590 -0.193380
			CHANNELS 3 Zrotation Yrotation Xrotation
			JOINT Spine1
			{
				OFFSET 0.056720 2.048850 -0.042750
				CHANNELS 3 Zrotation Yrotation Xrotation
				JOINT Neck
				{
					OFFSET 0.000000 0.000000 0.000000
					CHANNELS 3 Zrotation Yrotation Xrotation
					JOINT Neck1
					{
						OFFSET -0.054170 1.746240 0.172020
						CHANNELS 3 Zrotation Yrotation Xrotation
						JOINT Head
						{
							OFFSET 0.104070 1.761360 -0.123970
							CHANNELS 3 Zrotation Yrotation Xrotation
							End Site
							{
								OFFSET 0.000000 0.000000 0.000000
							}
						}
					}
				}
				JOINT LeftShoulder
				{
					OFFSET 0.000000 0.000000 0.000000
					CHANNELS 3 Zrotation Yrotation Xrotation
					JOINT LeftArm
					{
						OFFSET 3.362410 1.200890 -0.311210
						CHANNELS 3 Zrotation Yrotation Xrotation
						JOINT LeftForeArm
						{
							OFFSET 4.983000 -0.000000 -0.000000
							CHANNELS 3 Zrotation Yrotation Xrotation
							JOINT LeftHand
							{
								OFFSET 3.483560 -0.000000 -0.000000
								CHANNELS 3 Zrotation Yrotation Xrotation
								JOINT LeftFingerBase
								{
									OFFSET 0.000000 0.000000 0.000000
									CHANNELS 3 Zrotation Yrotation Xrotation
									JOINT LeftHandIndex1
									{
										OFFSET 0.715260 -0.000000 -0.000000
										CHANNELS 3 Zrotation Yrotation Xrotation
										End Site
										{
											OFFSET 0.000000 0.000000 0.000000
										}
									}
								}
								JOINT LThumb
								{
									OFFSET 0.000000 0.000000 0.000000
									CHANNELS 3 Zrotation Yrotation Xrotation
									End Site
									{
										OFFSET 0.000000 0.000000 0.000000
									}
								}
							}
						}
					}
				}
				JOINT RightShoulder
				{
					OFFSET 0.000000 0.000000 0.000000
					CHANNELS 3 Zrotation Yrotation Xrotation
					JOINT RightArm
					{
						OFFSET -3.136600 1.374050 -0.404650
						CHANNELS 3 Zrotation Yrotation Xrotation
						JOINT RightForeArm
						{
							OFFSET -5.241900 -0.000000 -0.000000
							CHANNELS 3 Zrotation Yrotation Xrotation
							JOINT RightHand
							{
								OFFSET -3.444170 -0.000000 -0.000000
								CHANNELS 3 Zrotation Yrotation Xrotation
								JOINT RightFingerBase
								{
									OFFSET 0.000000 0.000000 0.000000
									CHANNELS 3 Zrotation Yrotation Xrotation
									JOINT RightHandIndex1
									{
										OFFSET -0.622530 -0.000000 -0.000000
										CHANNELS 3 Zrotation Yrotation Xrotation
										End Site
										{
											OFFSET 0.000000 0.000000 0.000000
										}
									}
								}
								JOINT RThumb
								{
									OFFSET 0.000000 0.000000 0.000000
									CHANNELS 3 Zrotation Yrotation Xrotation
									End Site
									{
										OFFSET 0.000000 0.000000 0.000000
									}
								}
							}
						}
					}
				}
			}
		}
	}
}
MOTION
Frames: 7
Frame Time: 0.008333
1.586625 17.918418 -25.232887 -4.980280 -4.586846 0.547883 -0.550975 0.147577 -0.101691 -9.804567 -5.309631 -31.700043 3.471971 13.503123 37.946845 -2.818772 11.978617 6.867750 0.015800 -0.810800 -2.228400 -0.250885 -2.118495 2.104755 30.854662 9.317761 3.386481 -0.276695 -6.160312 20.418922 0.649927 -4.044229 -1.913136 -0.000200 -0.098200 0.269700 6.062501 1.544312 7.439502 1.539818 2.295427 -2.261030 1.895318 1.666990 -4.224696 -6.618196 -1.872660 -9.215107 2.453013 -1.694584 12.251572 2.215300 -1.352600 8.717700 -7.507731 2.516042 -2.631486 -80.951522 5.162936 26.276844 11.091777 -21.713002 -3.030283 -0.896713 -3.916778 9.068940 10.856392 22.977665 5.129800 -7.125000 0.000000 0.000000 -20.588500 56.245600 -5.852800 6.255984 -1.404062 -2.198524 76.740486 3.927852 17.619012 -14.985384 22.803985 -4.415134 1.162446 -0.357479 4.365107 -14.416185 9.454593 -2.688500 7.125000 0.000000 0.000000 8.108600 -19.984300 4.897900
1.591616 17.914839 -25.114917 -5.086718 -4.776637 0.656831 -0.619393 0.112611 -0.158292 -9.410436 -5.622430 -31.692647 3.132912 13.125833 36.501911 -2.998019 12.642130 7.417754 0.025362 -1.007272 -2.769038 -0.229580 -2.133146 2.143710 30.900004 9.140116 3.926822 -0.204383 -5.972899 19.916976 0.597285 -3.861872 -2.003611 -0.005054 -0.367184 1.008994 6.174310 1.615099 7.425209 1.545753 2.391039 -2.264156 1.849681 1.722177 -4.206586 -6.642860 -1.907420 -9.329724 2.476937 -1.729902 12.230473 2.227919 -1.368131 8.741871 -7.507940 2.511132 -2.629564 -81.080118 5.279680 25.950155 11.000319 -21.562446 -2.981615 -0.910501 -3.897869 9.382311 10.811334 22.851254 5.081604 -7.125000 0.000000 0.000000 -20.549963 56.103439 -5.769367 6.233813 -1.375503 -2.197779 76.611878 4.340296 17.955875 -15.195812 23.061704 -4.528597 1.145478 -0.308527 4.073037 -14.279927 9.184132 -2.576480 7.125000 0.000000 0.000000 8.228192 -20.310896 4.909694
1.596607 17.911259 -24.996948 -5.193157 -4.966427 0.765779 -0.687810 0.077646 -0.214892 -9.016305 -5.935229 -31.685251 2.793853 12.748543 35.056977 -3.177265 13.305642 7.967757 0.034923 -1.203744 -3.309675 -0.208276 -2.147798 2.182664 30.945347 8.962472 4.467163 -0.132072 -5.785485 19.415030 0.544643 -3.679515 -2.094086 -0.009907 -0.636168 1.748287 6.286120 1.685885 7.410916 1.551689 2.486650 -2.267281 1.804044 1.777364 -4.188476 -6.667525 -1.942180 -9.444340 2.500861 -1.765221 12.209374 2.240538 -1.383663 8.766041 -7.508148 2.506222 -2.627642 -81.208715 5.396424 25.623466 10.908862 -21.411890 -2.932947 -0.924290 -3.878960 9.695682 10.766275 22.724842 5.033408 -7.125000 0.000000 0.000000 -20.511426 55.961279 -5.685935 6.211642 -1.346943 -2.197034 76.483270 4.752739 18.292738 -15.406241 23.319423 -4.642060 1.128510 -0.259574 3.780967 -14.143669 8.913672 -2.464460 7.125000 0.000000 0.000000 8.347783 -20.637492 4.921488
1.604440 17.906069 -24.872773 -5.243785 -5.248000 0.854084 -0.762019 0.046244 -0.273110 -8.659847 -6.227347 -31.607523 2.471766 12.348738 33.604332 -3.366047 13.991294 8.454039 0.041748 -1.313837 -3.612839 -0.183947 -2.166481 2.220524 30.888379 8.756087 5.031648 -0.064252 -5.601488 18.922689 0.498178 -3.511656 -2.078566 -0.011340 -0.686879 1.887671 6.386189 1.790334 7.337788 1.542045 2.615756 -2.245723 1.713579 1.849831 -4.065894 -6.649524 -1.994191 -9.557069 2.490736 -1.832570 12.088139 2.227527 -1.408817 8.730878 -7.495272 2.509043 -2.624278 -81.343440 5.514609 25.525208 10.901578 -21.390171 -2.903060 -0.949410 -3.969032 9.780196 10.943067 23.492283 5.272170 -7.125000 0.000000 0.000000 -20.900086 56.802353 -6.241680 6.182660 -1.329967 -2.184532 76.376767 5.198801 18.515865 -15.589500 23.548618 -4.740519 1.144612 -0.293079 3.384142 -14.313118 9.334426 -2.622887 7.125000 0.000000 0.000000 8.205912 -20.156895 4.923568
1.612456 17.900776 -24.748200 -5.290829 -5.535468 0.941063 -0.836600 0.015071 -0.331432 -8.305808 -6.518136 -31.525278 2.150769 11.947487 32.151192 -3.555441 14.678368 8.936229 0.048397 -1.418382 -3.900752 -0.159424 -2.185423 2.258313 30.824840 8.547856 5.597682 0.003279 -5.417709 18.430966 0.452110 -3.344728 -2.056240 -0.012554 -0.723572 1.988528 6.485505 1.896944 7.260882 1.531401 2.747013 -2.222579 1.620235 1.923407 -3.936602 -6.628784 -2.047309 -9.669676 2.478425 -1.901976 11.960474 2.212869 -1.434590 8.691904 -7.481555 2.512361 -2.620821 -81.478559 5.632887 25.441620 10.899699 -21.376725 -2.874379 -0.975258 -4.066103 9.850013 11.134106 24.317127 5.529360 -7.125000 0.000000 0.000000 -21.316182 57.706570 -6.838473 6.153240 -1.313734 -2.171275 76.271684 5.647021 18.731687 -15.771014 23.775982 -4.838014 1.162838 -0.331880 2.980591 -14.502199 9.799571 -2.798683 7.125000 0.000000 0.000000 8.047249 -19.624459 4.925024
1.621580 17.893355 -24.623272 -5.352642 -5.846237 0.999650 -0.907967 -0.009941 -0.388208 -7.888003 -6.863999 -31.387344 1.852963 11.534918 30.717927 -3.750922 15.354628 9.300461 0.050352 -1.447858 -3.981933 -0.135596 -2.206262 2.298310 30.761994 8.313324 6.178486 0.062641 -5.243103 17.967094 0.430400 -3.257905 -1.994579 -0.007707 -0.503813 1.384475 6.623247 2.023975 7.226800 1.505335 2.913619 -2.204534 1.450642 2.012697 -3.834881 -6.559307 -2.056599 -9.828235 2.538048 -1.926570 11.928954 2.229793 -1.433219 8.714514 -7.480530 2.517373 -2.619908 -81.544681 5.763082 25.176739 10.845580 -21.292083 -2.845833 -0.997886 -4.048826 10.059211 11.215398 24.184188 5.547597 -7.125000 0.000000 0.000000 -21.120746 57.591343 -6.712475 6.120715 -1.300239 -2.164539 76.247166 6.028291 18.830838 -15.961186 24.008798 -4.938745 1.192752 -0.374491 2.651692 -14.809213 10.280962 -3.013188 7.125000 0.000000 0.000000 7.803316 -19.062918 4.868396
1.630856 17.885641 -24.498295 -5.416481 -6.160204 1.054338 -0.978892 -0.034108 -0.444771 -7.461446 -7.217420 -31.241767 1.558340 11.120796 29.287390 -3.947239 16.029402 9.648502 0.051663 -1.467029 -4.034740 -0.111864 -2.227361 2.338609 30.699243 8.075181 6.761317 0.120881 -5.069756 17.507046 0.412034 -3.182077 -1.927519 -0.002028 -0.248856 0.683670 6.766264 2.153810 7.198597 1.477152 3.085078 -2.187189 1.270583 2.104144 -3.736943 -6.483140 -2.059874 -9.993101 2.607545 -1.945013 11.910630 2.251051 -1.428123 8.745577 -7.481247 2.522618 -2.619343 -81.601334 5.894913 24.886973 10.784291 -21.197670 -2.817305 -1.020073 -4.015854 10.287541 11.281628 23.919789 5.533036 -7.125000 0.000000 0.000000 -20.841376 57.336191 -6.487270 6.087764 -1.287120 -2.158697 76.233706 6.400372 18.913974 -16.152545 24.242363 -5.039921 1.224269 -0.417624 2.333041 -15.132414 10.764583 -3.233005 7.125000 0.000000 0.000000 7.547679 -18.497382 4.803795
